<mxfile host="app.diagrams.net" modified="2022-12-16T15:46:10.705Z" agent="5.0 (Macintosh; Intel Mac OS X 10_15_7) AppleWebKit/537.36 (KHTML, like Gecko) Chrome/108.0.0.0 Safari/537.36" version="20.6.0" etag="wg_jQJqPHycNQ2xAVc3M" type="github">
  <diagram id="A7NznnnJ8shXm_joVXt0" name="Page-1">
    <mxGraphModel dx="786" dy="521" grid="1" gridSize="10" guides="1" tooltips="1" connect="1" arrows="1" fold="1" page="1" pageScale="1" pageWidth="850" pageHeight="1100" math="0" shadow="0">
      <root>
        <mxCell id="0" />
        <mxCell id="1" parent="0" />
        <mxCell id="cSQG3AwLKUe2r8WcYQIm-1" value="" style="rounded=0;whiteSpace=wrap;html=1;fillColor=#f5f5f5;fontColor=#333333;strokeColor=#666666;" vertex="1" parent="1">
          <mxGeometry x="160" y="80" width="200" height="90" as="geometry" />
        </mxCell>
        <mxCell id="cSQG3AwLKUe2r8WcYQIm-2" value="" style="rounded=0;whiteSpace=wrap;html=1;fillColor=#f5f5f5;fontColor=#333333;strokeColor=#666666;" vertex="1" parent="1">
          <mxGeometry x="160" y="240" width="200" height="200" as="geometry" />
        </mxCell>
        <mxCell id="cSQG3AwLKUe2r8WcYQIm-3" value="" style="rounded=0;whiteSpace=wrap;html=1;fillColor=#f5f5f5;fontColor=#333333;strokeColor=#666666;" vertex="1" parent="1">
          <mxGeometry x="520" y="120" width="200" height="90" as="geometry" />
        </mxCell>
        <mxCell id="cSQG3AwLKUe2r8WcYQIm-4" value="" style="rounded=0;whiteSpace=wrap;html=1;fillColor=#f5f5f5;fontColor=#333333;strokeColor=#666666;" vertex="1" parent="1">
          <mxGeometry x="520" y="280" width="200" height="90" as="geometry" />
        </mxCell>
        <mxCell id="cSQG3AwLKUe2r8WcYQIm-5" value="&lt;b&gt;CODE:&lt;/b&gt;" style="text;html=1;strokeColor=none;fillColor=none;align=left;verticalAlign=middle;whiteSpace=wrap;rounded=0;" vertex="1" parent="1">
          <mxGeometry x="160" y="50" width="60" height="30" as="geometry" />
        </mxCell>
        <mxCell id="cSQG3AwLKUe2r8WcYQIm-6" value="&lt;b&gt;PLT:&lt;/b&gt;" style="text;html=1;strokeColor=none;fillColor=none;align=left;verticalAlign=middle;whiteSpace=wrap;rounded=0;" vertex="1" parent="1">
          <mxGeometry x="160" y="210" width="60" height="30" as="geometry" />
        </mxCell>
        <mxCell id="cSQG3AwLKUe2r8WcYQIm-7" value="&lt;b&gt;GOT: &lt;/b&gt;(before lazying binding)" style="text;html=1;strokeColor=none;fillColor=none;align=left;verticalAlign=middle;whiteSpace=wrap;rounded=0;" vertex="1" parent="1">
          <mxGeometry x="520" y="90" width="200" height="30" as="geometry" />
        </mxCell>
        <mxCell id="cSQG3AwLKUe2r8WcYQIm-8" value="&lt;b&gt;GOT: &lt;/b&gt;(after lazying binding)" style="text;html=1;strokeColor=none;fillColor=none;align=left;verticalAlign=middle;whiteSpace=wrap;rounded=0;" vertex="1" parent="1">
          <mxGeometry x="520" y="250" width="200" height="30" as="geometry" />
        </mxCell>
        <mxCell id="cSQG3AwLKUe2r8WcYQIm-9" value="&lt;font style=&quot;font-size: 16px;&quot;&gt;call printf@plt&lt;br&gt;...&lt;br&gt;...&lt;br&gt;&lt;/font&gt;" style="text;html=1;strokeColor=none;fillColor=none;align=left;verticalAlign=middle;whiteSpace=wrap;rounded=0;" vertex="1" parent="1">
          <mxGeometry x="170" y="90" width="120" height="70" as="geometry" />
        </mxCell>
        <mxCell id="cSQG3AwLKUe2r8WcYQIm-10" value="&lt;font style=&quot;font-size: 16px;&quot;&gt;PLT[0]:&lt;br&gt;&amp;nbsp; &amp;nbsp; call resolver&lt;br&gt;...&lt;br&gt;PLT[n]:&lt;br&gt;&amp;nbsp; &amp;nbsp; jmp *GOT[n]&lt;br&gt;&amp;nbsp; &amp;nbsp; push sym_offset&lt;br&gt;&amp;nbsp; &amp;nbsp; jmp PLT[0]&lt;br&gt;&lt;/font&gt;" style="text;html=1;strokeColor=none;fillColor=none;align=left;verticalAlign=middle;whiteSpace=wrap;rounded=0;" vertex="1" parent="1">
          <mxGeometry x="170" y="240" width="160" height="180" as="geometry" />
        </mxCell>
        <mxCell id="cSQG3AwLKUe2r8WcYQIm-11" value="&lt;font style=&quot;font-size: 16px;&quot;&gt;...&lt;br&gt;GOT[n]:&lt;br&gt;&amp;nbsp; &amp;nbsp; &amp;lt;plt_entry_addr&amp;gt;&lt;br&gt;&lt;/font&gt;" style="text;html=1;strokeColor=none;fillColor=none;align=left;verticalAlign=middle;whiteSpace=wrap;rounded=0;" vertex="1" parent="1">
          <mxGeometry x="530" y="130" width="170" height="70" as="geometry" />
        </mxCell>
        <mxCell id="cSQG3AwLKUe2r8WcYQIm-12" value="&lt;font style=&quot;font-size: 16px;&quot;&gt;...&lt;br&gt;GOT[n]:&lt;br&gt;&amp;nbsp; &amp;nbsp; &amp;lt;printf_addr&amp;gt;&lt;br&gt;&lt;/font&gt;" style="text;html=1;strokeColor=none;fillColor=none;align=left;verticalAlign=middle;whiteSpace=wrap;rounded=0;" vertex="1" parent="1">
          <mxGeometry x="535" y="290" width="170" height="70" as="geometry" />
        </mxCell>
        <mxCell id="cSQG3AwLKUe2r8WcYQIm-22" style="edgeStyle=orthogonalEdgeStyle;curved=1;rounded=0;orthogonalLoop=1;jettySize=auto;html=1;exitX=1;exitY=0.25;exitDx=0;exitDy=0;entryX=1;entryY=0.5;entryDx=0;entryDy=0;fontSize=16;" edge="1" parent="1" source="cSQG3AwLKUe2r8WcYQIm-17" target="cSQG3AwLKUe2r8WcYQIm-19">
          <mxGeometry relative="1" as="geometry">
            <Array as="points">
              <mxPoint x="340" y="101" />
              <mxPoint x="340" y="330" />
            </Array>
          </mxGeometry>
        </mxCell>
        <mxCell id="cSQG3AwLKUe2r8WcYQIm-17" value="" style="rounded=0;whiteSpace=wrap;html=1;fontSize=16;strokeColor=none;fillColor=none;" vertex="1" parent="1">
          <mxGeometry x="260" y="97.5" width="20" height="15" as="geometry" />
        </mxCell>
        <mxCell id="cSQG3AwLKUe2r8WcYQIm-19" value="" style="rounded=0;whiteSpace=wrap;html=1;fontSize=16;strokeColor=none;fillColor=none;" vertex="1" parent="1">
          <mxGeometry x="240" y="322.5" width="20" height="15" as="geometry" />
        </mxCell>
        <mxCell id="cSQG3AwLKUe2r8WcYQIm-27" style="edgeStyle=orthogonalEdgeStyle;curved=1;rounded=0;orthogonalLoop=1;jettySize=auto;html=1;exitX=1;exitY=0.5;exitDx=0;exitDy=0;entryX=0;entryY=0.5;entryDx=0;entryDy=0;fontSize=16;" edge="1" parent="1" source="cSQG3AwLKUe2r8WcYQIm-23" target="cSQG3AwLKUe2r8WcYQIm-24">
          <mxGeometry relative="1" as="geometry" />
        </mxCell>
        <mxCell id="cSQG3AwLKUe2r8WcYQIm-23" value="" style="rounded=0;whiteSpace=wrap;html=1;fontSize=16;strokeColor=none;fillColor=none;" vertex="1" parent="1">
          <mxGeometry x="280" y="337.5" width="20" height="15" as="geometry" />
        </mxCell>
        <mxCell id="cSQG3AwLKUe2r8WcYQIm-24" value="" style="rounded=0;whiteSpace=wrap;html=1;fontSize=16;strokeColor=none;fillColor=none;" vertex="1" parent="1">
          <mxGeometry x="520" y="160" width="20" height="15" as="geometry" />
        </mxCell>
        <mxCell id="cSQG3AwLKUe2r8WcYQIm-25" value="" style="rounded=0;whiteSpace=wrap;html=1;fontSize=16;strokeColor=none;fillColor=none;" vertex="1" parent="1">
          <mxGeometry x="310" y="360" width="20" height="15" as="geometry" />
        </mxCell>
        <mxCell id="cSQG3AwLKUe2r8WcYQIm-28" style="edgeStyle=orthogonalEdgeStyle;curved=1;rounded=0;orthogonalLoop=1;jettySize=auto;html=1;exitX=0;exitY=0.5;exitDx=0;exitDy=0;entryX=1;entryY=0.5;entryDx=0;entryDy=0;fontSize=16;" edge="1" parent="1" source="cSQG3AwLKUe2r8WcYQIm-26" target="cSQG3AwLKUe2r8WcYQIm-25">
          <mxGeometry relative="1" as="geometry" />
        </mxCell>
        <mxCell id="cSQG3AwLKUe2r8WcYQIm-26" value="" style="rounded=0;whiteSpace=wrap;html=1;fontSize=16;strokeColor=none;fillColor=none;" vertex="1" parent="1">
          <mxGeometry x="540" y="180" width="20" height="15" as="geometry" />
        </mxCell>
        <mxCell id="cSQG3AwLKUe2r8WcYQIm-31" style="edgeStyle=orthogonalEdgeStyle;curved=1;rounded=0;orthogonalLoop=1;jettySize=auto;html=1;exitX=0;exitY=0.5;exitDx=0;exitDy=0;entryX=0;entryY=0.5;entryDx=0;entryDy=0;fontSize=16;" edge="1" parent="1" source="cSQG3AwLKUe2r8WcYQIm-29" target="cSQG3AwLKUe2r8WcYQIm-30">
          <mxGeometry relative="1" as="geometry" />
        </mxCell>
        <mxCell id="cSQG3AwLKUe2r8WcYQIm-29" value="" style="rounded=0;whiteSpace=wrap;html=1;fontSize=16;strokeColor=none;fillColor=none;" vertex="1" parent="1">
          <mxGeometry x="180" y="380" width="20" height="15" as="geometry" />
        </mxCell>
        <mxCell id="cSQG3AwLKUe2r8WcYQIm-30" value="" style="rounded=0;whiteSpace=wrap;html=1;fontSize=16;strokeColor=none;fillColor=none;" vertex="1" parent="1">
          <mxGeometry x="170" y="265" width="20" height="15" as="geometry" />
        </mxCell>
        <mxCell id="cSQG3AwLKUe2r8WcYQIm-34" value="①" style="text;html=1;strokeColor=none;fillColor=none;align=center;verticalAlign=middle;whiteSpace=wrap;rounded=0;fontSize=16;" vertex="1" parent="1">
          <mxGeometry x="120" y="90" width="30" height="30" as="geometry" />
        </mxCell>
        <mxCell id="cSQG3AwLKUe2r8WcYQIm-35" value="②" style="text;html=1;strokeColor=none;fillColor=none;align=center;verticalAlign=middle;whiteSpace=wrap;rounded=0;fontSize=16;" vertex="1" parent="1">
          <mxGeometry x="336" y="195" width="30" height="30" as="geometry" />
        </mxCell>
        <mxCell id="cSQG3AwLKUe2r8WcYQIm-37" value="③" style="text;html=1;strokeColor=none;fillColor=none;align=center;verticalAlign=middle;whiteSpace=wrap;rounded=0;fontSize=16;" vertex="1" parent="1">
          <mxGeometry x="390" y="195" width="30" height="30" as="geometry" />
        </mxCell>
        <mxCell id="cSQG3AwLKUe2r8WcYQIm-38" value="④" style="text;html=1;strokeColor=none;fillColor=none;align=center;verticalAlign=middle;whiteSpace=wrap;rounded=0;fontSize=16;" vertex="1" parent="1">
          <mxGeometry x="440" y="257.5" width="30" height="30" as="geometry" />
        </mxCell>
        <mxCell id="cSQG3AwLKUe2r8WcYQIm-39" value="&lt;span style=&quot;color: rgb(51, 51, 51); font-family: &amp;quot;PingFang SC&amp;quot;, &amp;quot;Lantinghei SC&amp;quot;, &amp;quot;Microsoft YaHei&amp;quot;, arial, 宋体, sans-serif, tahoma; text-align: start; background-color: rgb(255, 255, 255);&quot;&gt;⑤&lt;/span&gt;" style="text;html=1;strokeColor=none;fillColor=none;align=center;verticalAlign=middle;whiteSpace=wrap;rounded=0;fontSize=16;" vertex="1" parent="1">
          <mxGeometry x="120" y="310" width="30" height="30" as="geometry" />
        </mxCell>
        <mxCell id="cSQG3AwLKUe2r8WcYQIm-40" value="&lt;div style=&quot;text-align: start;&quot;&gt;&lt;span style=&quot;background-color: initial;&quot;&gt;&lt;font face=&quot;PingFang SC, Lantinghei SC, Microsoft YaHei, arial, 宋体, sans-serif, tahoma&quot; color=&quot;#333333&quot;&gt;⑥&lt;/font&gt;&lt;/span&gt;&lt;/div&gt;" style="text;html=1;strokeColor=none;fillColor=none;align=center;verticalAlign=middle;whiteSpace=wrap;rounded=0;fontSize=16;" vertex="1" parent="1">
          <mxGeometry x="490" y="330" width="30" height="30" as="geometry" />
        </mxCell>
      </root>
    </mxGraphModel>
  </diagram>
</mxfile>
